# xmcd CD database file
#
# Track frame offsets:
#	150
#	12907
#	25110
#	38200
#	48205
#	68640
#	79192
#	95190
#	104257
#	126745
#	136420
#	146157
#	162520
#	184159
#	196175
#	209120
#
# Disc length: 2990 seconds
#
# Revision: 1
# Processed by: cddbd v1.5.2PL0 Copyright (c) Steve Scherf et al.
# Submitted via: CDex 1.51
#
DISCID=ef0bac10
DTITLE=Corey Harris - Between Midnight And Day
DYEAR=1995
DGENRE=Blues
TTITLE0=Roots Woman
TTITLE1=Pony Blues
TTITLE2=Keep Your Lamp Trimmed And Burning
TTITLE3=Early In The Morning
TTITLE4=Feel Like Going Home
TTITLE5=I'm A Rattlesnakin' Daddy
TTITLE6=Between Midnight And Day
TTITLE7=Bukka's Jitterbug Swing
TTITLE8=Going To Brownsville
TTITLE9=Write Me A Few Lines
TTITLE10=She Moves Me
TTITLE11=Bound To Miss Me
TTITLE12=61 Highway
TTITLE13=Catfish Blues
TTITLE14=I Ain't Gonna Be Worried No More
TTITLE15=It Hurts Me Too
EXTD=YEAR: 1995
EXTT0=
EXTT1=
EXTT2=
EXTT3=
EXTT4=
EXTT5=
EXTT6=
EXTT7=
EXTT8=
EXTT9=
EXTT10=
EXTT11=
EXTT12=
EXTT13=
EXTT14=
EXTT15=
PLAYORDER=
